<svg xmlns="http://www.w3.org/2000/svg" viewBox="45.785 50 483.42999267578125 530.2099990844727"> <svg x="120" y="120" xmlns="http://www.w3.org/2000/svg" preserveAspectRatio="none" width="335" height="335" fill="#000000" fill-opacity="1" style="overflow: visible;"><rect rx="50%" ry="50%" x="0" y="0" height="335" width="335" stroke-width="0" stroke="#000" style=""></rect></svg> <svg xmlns="http://www.w3.org/2000/svg" xmlns:xlink="http://www.w3.org/1999/xlink" version="1.1" id="Layer_1" x="155.2649210526316" y="202.268947368421" viewBox="201.80001831054688 237.89999389648438 676.39990234375 604.1248779296875" xml:space="preserve" height="236.2106001938609" width="264.46981008429276" preserveAspectRatio="xMinYMin" enable-background="new 0 0 1080 1080" style="overflow: visible;"><path class="st0" d="M495.9,526.5H380l70.3-231.4c8.7-28.5-12.7-57.2-42.4-57.2H266.2v0h-64.4l47.4,47.4c10.9,10.9,17,25.7,17,41.1  V569c0,43.8,20.2,85.1,54.8,111.9l89.4,69.3L495.9,526.5z" style="fill: #F2A900; fill-opacity: 1;"></path><path class="st1" d="M813.8,237.9L813.8,237.9l-80.4,0c-27.4,0-52.7,14.5-66.6,38l-91.3,154.9h149.8L426.3,762.6l93.6,72.6  c11.8,9.1,28.3,9.1,40.1,0l199-154.3c34.6-26.8,54.8-68.1,54.8-111.9V326.4c0-15.4,6.1-30.2,17-41.1l47.4-47.4H813.8z" style="fill: #FFFFFF; fill-opacity: 1;"></path><polygon class="st2" points="380,526.5 482.8,560.8 495.9,526.5 " style="opacity: 0.22; fill: #FEFE22; fill-opacity: 1;"></polygon><polygon class="st2" points="666.8,276 614.1,430.8 575.5,430.8 " style="opacity: 0.22; fill: #FEFE22; fill-opacity: 1;"></polygon><polygon class="st2" points="426.3,762.6 725.3,430.8 462.5,790.7 " style="opacity: 0.22; fill: #FEFE22; fill-opacity: 1;"></polygon></svg> <g transform="rotate(0 287.4999963378906 491.1049995422363)"><svg y="472" viewBox="0.5600000023841858 11.140000343322754 343.42999267578125 38.209999084472656" x="115.785" height="38.209999084472656" width="343.42999267578125" style="overflow: visible;"></svg></g></svg>